# xmcd CD database file
#
# Track frame offsets:
#	150
#	23935
#	47245
#
# Disc length: 942 seconds
#
# Revision: 0
# Processed by: cddbd v1.5.1PL0 Copyright (c) Steve Scherf et al.
# Submitted via: CDex 1.51
#
DISCID=2003ac03
DTITLE=ジョー・リノイエ - 生まれたての愛をあなたに
DYEAR=1997
DGENRE=JPop
TTITLE0=生まれたての愛をあなたに
TTITLE1=HEAL HURTING HEART
TTITLE2=生まれたての愛をあなたに[オリジナル・カラオケ]
EXTD=YEAR: 1997
EXTT0=
EXTT1=
EXTT2=
PLAYORDER=
